<svg width="613" height="457" viewBox="0 0 613 457" fill="none" xmlns="http://www.w3.org/2000/svg">
<path d="M311.219 457C144.55 457 9.43787 443.803 9.43787 427.524C9.43787 411.245 144.55 398.048 311.219 398.048C477.888 398.048 613 411.245 613 427.524C613 443.803 477.888 457 311.219 457Z" fill="#3F3D56"/>
<path opacity="0.1" d="M400.92 444.825C322.363 444.825 258.68 435.214 258.68 423.359C258.68 411.503 322.363 401.893 400.92 401.893C479.478 401.893 543.161 411.503 543.161 423.359C543.161 435.214 479.478 444.825 400.92 444.825Z" fill="black"/>
<path d="M471.804 167.078C538.606 167.078 592.753 221.237 592.753 288.038C592.753 354.84 538.58 408.999 471.804 408.999C463.573 409.002 455.364 408.169 447.302 406.513C458.811 387.591 464.881 365.863 464.845 343.716C464.845 285.315 423.455 236.577 368.404 225.248C379.185 207.481 394.365 192.794 412.477 182.604C430.589 172.415 451.022 167.067 471.804 167.078Z" fill="#4D6BC3"/>
<path opacity="0.1" d="M580.547 291.518C580.547 224.716 526.393 170.564 459.598 170.564C453.095 170.564 446.603 171.085 440.184 172.121C450.494 169.343 461.126 167.94 471.804 167.949C538.606 167.949 592.753 222.108 592.753 288.91C592.753 349.143 548.742 399.067 491.128 408.32C516.794 401.382 539.461 386.182 555.624 365.069C571.787 343.957 580.546 318.108 580.547 291.518Z" fill="black"/>
<path d="M368.98 224.37C351.213 213.588 336.526 198.408 326.337 180.294C316.147 162.18 310.799 141.744 310.809 120.961C310.809 54.159 364.956 0 431.758 0C498.56 0 552.701 54.159 552.701 120.961C552.705 129.194 551.872 137.406 550.215 145.471C531.298 133.954 509.571 127.881 487.424 127.92C429.042 127.9 380.308 169.32 368.98 224.37Z" fill="#4D6BC3"/>
<path opacity="0.1" d="M321.233 120.961C321.219 139.904 325.66 158.585 334.199 175.494C342.737 192.404 355.132 207.068 370.383 218.302C369.864 220.308 369.384 222.326 368.961 224.37C351.194 213.588 336.507 198.408 326.317 180.294C316.127 162.18 310.78 141.744 310.79 120.961C310.79 54.159 364.937 0 431.739 0C433.488 0 435.225 0.0448515 436.955 0.121745C372.6 2.85789 321.233 55.9083 321.233 120.961Z" fill="black"/>
<path d="M374.26 278.766C376.241 279.778 378.124 280.971 379.885 282.329C381.655 283.699 383.011 285.534 383.8 287.628C384.896 285.353 385.492 282.88 386.222 280.464C387.621 276.081 389.273 271.783 391.168 267.591C388.047 266.399 385.341 264.321 383.384 261.612C379.539 265.425 375.624 269.398 373.722 274.428C373.395 275.3 372.44 276.229 372.216 276.991C371.915 278.125 373.427 278.305 374.26 278.766Z" fill="#FFBFC5"/>
<path d="M480.133 402.232C480.133 430.824 459.508 433.855 434.059 433.855C408.609 433.855 387.991 430.824 387.991 402.232C387.991 373.641 408.615 362.779 434.059 362.779C459.502 362.779 480.133 373.647 480.133 402.232Z" fill="#3F3D56"/>
<path d="M338.258 371.635C334.077 372.954 330.179 375.04 326.763 377.786C326.506 377.947 326.321 378.199 326.244 378.491C326.154 379.132 327.038 379.42 327.679 379.606C329.601 380.151 330.774 381.926 332.164 383.31C333.555 384.694 335.784 385.79 337.405 384.681C337.831 384.355 338.203 383.963 338.507 383.521L345.35 374.602C343.03 373.302 340.591 372.23 338.065 371.398" fill="#F1F1F1"/>
<path d="M325.949 373.493C325.039 374.416 324.668 375.749 323.758 376.697C323.161 377.269 322.478 377.742 321.733 378.1L316.492 380.984C315.679 381.466 314.821 381.867 313.929 382.182C312.943 382.463 311.939 382.677 310.924 382.823C309.47 383.104 308.049 383.533 306.683 384.104C305.657 384.527 304.511 385.251 304.517 386.36C304.561 386.905 304.787 387.419 305.158 387.821C307.221 390.423 310.879 391.025 314.185 391.352C321.336 392.108 328.653 392.672 335.643 390.986C337.009 390.735 338.299 390.176 339.417 389.352C341.525 387.603 341.98 384.418 341.16 381.798C340.937 380.79 340.342 379.905 339.494 379.318C338.386 378.677 337.008 378.978 335.733 378.882C334.39 378.693 333.09 378.274 331.889 377.645C331.088 377.287 330.172 376.819 329.967 375.87C329.761 374.922 330.844 374.102 330.607 373.307C330.159 371.52 326.782 372.641 325.949 373.493Z" fill="#575A89"/>
<path opacity="0.1" d="M325.949 373.493C325.039 374.416 324.668 375.749 323.758 376.697C323.161 377.269 322.478 377.742 321.733 378.1L316.492 380.984C315.679 381.466 314.821 381.867 313.929 382.182C312.943 382.463 311.939 382.677 310.924 382.823C309.47 383.104 308.049 383.533 306.683 384.104C305.657 384.527 304.511 385.251 304.517 386.36C304.561 386.905 304.787 387.419 305.158 387.821C307.221 390.423 310.879 391.025 314.185 391.352C321.336 392.108 328.653 392.672 335.643 390.986C337.009 390.735 338.299 390.176 339.417 389.352C341.525 387.603 341.98 384.418 341.16 381.798C340.937 380.79 340.342 379.905 339.494 379.318C338.386 378.677 337.008 378.978 335.733 378.882C334.39 378.693 333.09 378.274 331.889 377.645C331.088 377.287 330.172 376.819 329.967 375.87C329.761 374.922 330.844 374.102 330.607 373.307C330.159 371.52 326.782 372.641 325.949 373.493Z" fill="black"/>
<path d="M313.795 402.111L311.59 403.565C310.917 403.925 310.363 404.473 309.995 405.141C309.515 406.263 310.162 407.532 310.879 408.518C313.033 411.464 315.973 413.743 319.362 415.093C320.537 415.582 321.779 415.891 323.047 416.009C323.335 416.056 323.63 416.021 323.899 415.907C324.572 415.548 324.475 414.593 324.482 413.83C324.482 411.633 326.167 409.845 327.686 408.224C329.204 406.602 330.703 404.616 330.357 402.457C330.04 401.173 329.375 400.002 328.435 399.073C327.61 398.032 326.639 397.114 325.552 396.35C323.995 395.331 323.45 395.882 321.989 396.811C319.243 398.558 316.511 400.325 313.795 402.111Z" fill="#F1F1F1"/>
<path d="M320.945 412.837C320.347 412.989 319.721 412.997 319.118 412.861C318.516 412.725 317.954 412.449 317.479 412.055C316.532 411.261 315.765 410.274 315.23 409.159C314.692 408.173 314.225 407.149 313.833 406.096C313.372 404.859 312.949 403.495 311.86 402.745C310.578 401.835 308.694 402.194 307.375 403.072C306.055 403.95 305.055 405.25 303.921 406.378C301.249 409.044 297.732 410.729 294.118 411.831C290.504 412.933 286.756 413.484 283.046 414.196C282.302 414.295 281.581 414.527 280.919 414.881C279.42 415.798 278.914 417.842 279.336 419.546C279.759 421.251 280.868 422.66 282.079 423.942C283.088 425.138 284.339 426.105 285.75 426.781C286.941 427.215 288.193 427.453 289.46 427.486C295.605 427.9 301.779 427.417 307.785 426.05C309.989 425.448 312.233 425 314.499 424.711C315.877 424.589 317.274 424.628 318.651 424.531C321.403 424.342 324.095 423.633 326.583 422.443C327.188 422.219 327.698 421.794 328.025 421.238C328.206 420.728 328.244 420.178 328.134 419.649L327.218 411.613C327.135 410.915 326.904 410.043 326.205 409.934C325.507 409.826 325.065 410.511 324.648 411.037C323.84 412.003 322.734 412.673 321.504 412.942C320.273 413.211 318.988 413.064 317.85 412.523" fill="#575A89"/>
<path d="M374.151 311.504C370.121 311.049 365.443 310.972 362.714 313.977C361.042 315.823 360.535 318.405 359.959 320.821C359.055 324.885 357.584 328.802 355.589 332.457C354.308 334.726 352.751 336.847 351.745 339.256C350.739 341.665 350.361 344.382 349.771 347.003C347.41 357.281 341.643 366.459 333.407 373.045C334.862 376.998 339.071 379.26 343.165 380.273C344.153 380.6 345.215 380.633 346.222 380.369C346.984 380.039 347.661 379.539 348.201 378.908C350.115 376.84 351.897 374.655 353.539 372.365C359.44 364.484 365.424 356.442 368.641 347.144C369.768 343.876 370.896 340.096 374.068 338.705C375.874 337.923 377.944 338.167 379.885 338.5C384.224 339.233 388.493 340.329 392.649 341.774C397.082 343.319 402.157 345.215 406.213 342.857C408.641 341.441 410.057 338.731 410.614 335.975C411.172 333.22 410.89 330.375 410.614 327.581C410.587 326.322 410.286 325.084 409.73 323.954C409.169 323.108 408.448 322.379 407.609 321.808C403.986 319.063 399.957 316.901 395.666 315.4C391.572 313.952 387.164 313.477 382.89 312.753C379.99 312.249 377.077 311.833 374.151 311.504Z" fill="#575A89"/>
<path opacity="0.1" d="M374.151 311.504C370.121 311.049 365.443 310.972 362.714 313.977C361.042 315.823 360.535 318.405 359.959 320.821C359.055 324.885 357.584 328.802 355.589 332.457C354.308 334.726 352.751 336.847 351.745 339.256C350.739 341.665 350.361 344.382 349.771 347.003C347.41 357.281 341.643 366.459 333.407 373.045C334.862 376.998 339.071 379.26 343.165 380.273C344.153 380.6 345.215 380.633 346.222 380.369C346.984 380.039 347.661 379.539 348.201 378.908C350.115 376.84 351.897 374.655 353.539 372.365C359.44 364.484 365.424 356.442 368.641 347.144C369.768 343.876 370.896 340.096 374.068 338.705C375.874 337.923 377.944 338.167 379.885 338.5C384.224 339.233 388.493 340.329 392.649 341.774C397.082 343.319 402.157 345.215 406.213 342.857C408.641 341.441 410.057 338.731 410.614 335.975C411.172 333.22 410.89 330.375 410.614 327.581C410.587 326.322 410.286 325.084 409.73 323.954C409.169 323.108 408.448 322.379 407.609 321.808C403.986 319.063 399.957 316.901 395.666 315.4C391.572 313.952 387.164 313.477 382.89 312.753C379.99 312.249 377.077 311.833 374.151 311.504Z" fill="black"/>
<path d="M351.072 340.583C349.19 341.523 347.462 342.744 345.946 344.203C344.312 345.946 343.319 348.195 342.473 350.438C342.141 351.202 341.938 352.016 341.871 352.847C341.84 353.262 341.904 353.679 342.059 354.065C342.213 354.451 342.453 354.798 342.762 355.077C343.506 355.566 344.392 355.791 345.28 355.718C346.446 355.718 347.618 355.718 348.785 355.628C349.495 355.623 350.198 355.488 350.86 355.231C351.467 354.921 352.013 354.507 352.475 354.007C354.53 352.099 356.214 349.826 357.441 347.304C358.287 345.44 359.683 341.134 358.351 339.192C357.018 337.25 352.52 339.756 351.072 340.583Z" fill="#FFBFC5"/>
<path d="M407.603 339.916C401.638 341.838 395.288 342.044 389.054 342.627C378.568 343.608 368.21 345.656 358.139 348.74C356.076 349.381 353.968 350.073 352.309 351.45C350.96 352.697 349.818 354.151 348.926 355.756C347.288 358.251 345.805 360.845 344.485 363.523C343.351 365.945 342.486 368.482 341.436 370.936C337.895 379.157 332.297 386.327 325.18 391.755C323.899 392.749 322.432 393.825 322.098 395.421C321.947 396.45 322.115 397.501 322.579 398.432C324.117 402.014 327.308 404.622 330.659 406.615C332.094 407.474 333.683 408.339 334.388 409.864C339.475 407.762 343.262 403.277 346.408 398.766C349.553 394.255 352.353 389.391 356.39 385.649C358.165 383.996 360.183 382.56 361.586 380.574C363.72 377.549 364.297 373.41 367.167 371.077C370.037 368.745 374.215 369.046 377.925 369.411C396.932 371.265 416.084 371.05 435.045 368.771C438.986 368.303 443.035 367.7 446.45 365.669C449.865 363.638 452.524 359.844 452.044 355.904C451.589 352.213 448.52 349.291 445.092 347.849C441.664 346.407 437.884 346.145 434.2 345.728C425.031 344.716 416.278 343.05 407.603 339.916Z" fill="#575A89"/>
<path d="M462.122 347.573C461.655 344.446 460.444 341.486 459.681 338.417C459.3 336.485 458.817 334.575 458.233 332.694C458.233 332.637 458.188 332.586 458.169 332.534C457.976 332.519 457.788 332.461 457.62 332.364C457.452 332.268 457.306 332.136 457.195 331.977C457.09 331.703 457.061 331.407 457.112 331.118C457.134 330.813 457.134 330.507 457.112 330.202C455.863 328.109 454.498 326.087 453.024 324.146C450.461 320.488 448.206 316.598 445.976 312.715C444.144 309.511 442.311 306.345 440.799 303.001C439.658 300.495 438.704 297.874 437.448 295.452C432.963 286.738 424.941 280.31 416.304 275.697C408.013 271.269 399.049 268.289 390.336 264.765C390.114 264.988 389.91 265.228 389.727 265.483C385.018 271.923 384.511 280.381 382.57 288.122C381.788 291.249 380.744 294.363 380.744 297.58C380.744 302.334 383.018 306.756 385.28 310.94C387.401 314.881 389.586 318.822 392.399 322.301C393.731 323.954 395.199 325.505 396.538 327.139C402.035 333.874 405.207 342.159 408.295 350.29C410.076 355 412.998 359.172 414.959 363.811C415.715 365.592 416.15 367.508 417.099 369.2C418.047 370.892 419.694 372.365 421.628 372.404C422.195 372.386 422.756 372.298 423.301 372.141C430.304 370.34 436.167 365.733 441.984 361.414C443.029 360.645 444.073 359.889 445.188 359.197C446.303 358.505 447.43 357.871 448.571 357.275L451.172 355.846C454.004 354.295 456.849 352.738 459.803 351.425C460.694 351.076 461.552 350.647 462.366 350.143C462.357 349.281 462.276 348.422 462.122 347.573Z" fill="#3F3D56"/>
<path d="M370.576 278.228C361.665 278.228 354.442 271.004 354.442 262.093C354.442 253.182 361.665 245.958 370.576 245.958C379.486 245.958 386.709 253.182 386.709 262.093C386.709 271.004 379.486 278.228 370.576 278.228Z" fill="#FFBFC5"/>
<path d="M359.715 254.545C359.322 255.224 358.731 255.766 358.021 256.1C357.311 256.433 356.516 256.541 355.743 256.409C354.973 256.255 354.244 255.939 353.605 255.483C352.965 255.027 352.43 254.441 352.033 253.763C351.248 252.402 350.779 250.882 350.662 249.316C350.527 248.092 350.547 246.753 351.335 245.798C351.934 245.212 352.624 244.727 353.379 244.363C354.423 243.722 355.301 242.844 355.941 241.799C356.39 241.05 356.717 240.236 357.12 239.467C358.588 236.68 361.445 234.411 364.591 234.514C366.103 234.565 367.545 235.155 369.038 235.398C374.042 236.276 379.475 233.629 384.121 235.693C385.261 236.248 386.321 236.955 387.273 237.795C388.58 238.875 389.836 240.012 391.04 241.204C392.086 242.094 392.878 243.246 393.334 244.542C393.975 246.913 392.469 249.559 393.424 251.815C393.748 252.461 394.136 253.073 394.584 253.641C395.634 255.185 394.494 261.215 394.584 263.08C394.714 263.985 394.484 264.905 393.943 265.643C393.18 266.495 391.905 266.566 390.739 266.579H388.644C388.331 266.602 388.017 266.569 387.715 266.482C387.303 266.302 386.941 266.025 386.658 265.675C384.915 263.836 384.543 257.832 382.013 257.857C381.627 257.832 381.242 257.931 380.917 258.139C380.462 258.473 380.327 259.094 380.001 259.556C379.63 259.995 379.127 260.303 378.568 260.434C378.008 260.566 377.421 260.514 376.893 260.286C375.849 259.801 374.94 259.066 374.247 258.146C373.558 257.227 372.723 256.428 371.774 255.781C370.422 254.993 368.897 254.654 367.583 253.763C366.488 253.02 365.866 251.943 364.88 251.123C363.893 250.303 363.06 250.418 362.009 250.963C360.491 251.802 360.427 253.135 359.715 254.545Z" fill="#3F3D56"/>
<path opacity="0.1" d="M396.993 282.97C393.226 282.432 389.388 282.739 385.754 283.867C384.541 284.147 383.446 284.799 382.621 285.732C382.149 286.436 381.843 287.237 381.724 288.077C380.983 291.937 381.46 295.931 383.089 299.508C383.204 299.687 383.279 299.888 383.311 300.097C383.343 300.307 383.331 300.521 383.275 300.726C383.109 300.982 382.891 301.201 382.634 301.367C382.408 301.585 382.231 301.849 382.114 302.141C381.997 302.432 381.944 302.746 381.956 303.06C381.969 303.374 382.048 303.681 382.188 303.963C382.328 304.244 382.526 304.493 382.769 304.692C383.07 304.91 383.467 305.102 383.525 305.468C383.582 305.833 383.211 306.185 382.916 306.467C382.486 306.888 382.169 307.41 381.995 307.986C381.82 308.562 381.793 309.172 381.916 309.761C382.075 310.233 382.185 310.721 382.243 311.215C382.179 311.823 381.999 312.413 381.711 312.952C381.222 314.17 381.056 315.495 381.231 316.797C381.386 317.411 381.401 318.053 381.276 318.674C381.096 319.085 380.854 319.465 380.558 319.802C379.398 321.365 379.148 323.98 380.827 324.928C380.108 325.298 379.522 325.884 379.151 326.603C378.78 327.322 378.643 328.139 378.758 328.939C377.752 328.408 376.534 329.093 375.695 329.862C374.856 330.631 374.003 331.58 372.869 331.637C372.075 331.676 371.235 331.266 370.518 331.592C369.416 332.086 369.454 333.874 368.371 334.405C367.423 334.88 366.097 334.111 365.29 334.796C365.008 335.033 364.867 335.399 364.591 335.648C363.982 336.212 363.021 335.975 362.188 335.937C360.221 335.86 358.408 337.218 357.389 338.872C356.371 340.525 356.005 342.543 355.743 344.491C355.526 345.562 355.548 346.666 355.807 347.727C355.943 348.255 356.231 348.73 356.636 349.095C357.04 349.459 357.543 349.697 358.081 349.778C367.981 350.419 377.752 348.041 387.395 345.696C390.227 345.004 393.103 344.197 395.468 342.492C397.614 340.935 399.19 338.743 400.728 336.59C403.566 332.611 406.424 328.606 408.455 324.166C411.069 318.456 412.235 312.202 413.376 306.019C413.769 304.362 413.91 302.655 413.792 300.957C413.447 298.971 412.687 297.08 411.563 295.407C410.206 293.192 408.708 291.067 407.078 289.044C404.598 285.988 400.888 283.527 396.993 282.97Z" fill="black"/>
<path d="M396.346 282.329C392.577 281.791 388.735 282.1 385.101 283.232C383.887 283.507 382.791 284.157 381.968 285.091C381.499 285.796 381.192 286.597 381.071 287.436C380.333 291.296 380.81 295.29 382.435 298.868C382.55 299.046 382.626 299.247 382.658 299.457C382.69 299.666 382.677 299.88 382.621 300.085C382.456 300.342 382.237 300.56 381.981 300.726C381.755 300.944 381.578 301.208 381.461 301.5C381.344 301.792 381.29 302.105 381.303 302.419C381.316 302.733 381.394 303.041 381.534 303.322C381.674 303.603 381.872 303.852 382.115 304.052C382.416 304.269 382.813 304.462 382.871 304.827C382.929 305.192 382.557 305.545 382.23 305.826C381.801 306.247 381.484 306.77 381.309 307.345C381.134 307.921 381.108 308.531 381.231 309.12C381.39 309.592 381.499 310.08 381.558 310.575C381.496 311.182 381.318 311.772 381.032 312.311C380.538 313.528 380.37 314.854 380.545 316.156C380.743 316.667 380.785 317.226 380.665 317.761C380.546 318.296 380.27 318.783 379.873 319.161C378.713 320.725 378.463 323.339 380.142 324.326C379.422 324.694 378.836 325.278 378.465 325.997C378.094 326.715 377.957 327.531 378.072 328.331C377.066 327.799 375.849 328.485 375.009 329.253C374.17 330.022 373.318 330.971 372.184 331.028C371.389 331.067 370.556 330.657 369.832 330.984C368.73 331.483 368.769 333.265 367.686 333.803C366.738 334.271 365.411 333.502 364.604 334.188C364.322 334.425 364.181 334.79 363.906 335.04C363.297 335.604 362.336 335.367 361.503 335.328C359.536 335.251 357.723 336.61 356.704 338.263C355.776 340.004 355.216 341.916 355.057 343.883C354.852 344.943 354.874 346.035 355.121 347.086C355.257 347.614 355.546 348.089 355.95 348.454C356.355 348.819 356.857 349.056 357.396 349.137C367.295 349.778 377.066 347.4 386.709 345.055C389.541 344.363 392.424 343.556 394.782 341.851C396.929 340.301 398.505 338.103 400.043 335.95C402.881 331.977 405.739 327.972 407.77 323.531C410.384 317.816 411.55 311.561 412.69 305.384C413.084 303.725 413.224 302.017 413.107 300.316C412.78 298.332 412.04 296.439 410.935 294.76C409.582 292.545 408.084 290.421 406.45 288.404C403.945 285.334 400.235 282.88 396.346 282.329Z" fill="#3F3D56"/>
<path d="M30.4664 169.237C28.7344 168.907 27.0886 168.226 25.6308 167.234C24.1729 166.242 22.934 164.962 21.9907 163.473C21.0475 161.983 20.4199 160.315 20.147 158.573C19.874 156.832 19.9615 155.052 20.4038 153.345C20.8462 151.638 21.6342 150.041 22.7189 148.65C23.8036 147.26 25.162 146.108 26.71 145.264C28.2581 144.42 29.9628 143.903 31.7187 143.744C33.4747 143.586 35.2444 143.79 36.9185 144.343C31.8988 151.62 29.6134 160.438 30.4664 169.237Z" fill="#F1F1F1"/>
<path d="M10.4822 164.028C8.75025 163.698 7.10438 163.016 5.6465 162.024C4.18861 161.033 2.94976 159.753 2.00652 158.263C1.06328 156.773 0.435747 155.106 0.162794 153.364C-0.110161 151.622 -0.0227261 149.843 0.419647 148.136C0.86202 146.429 1.64991 144.831 2.73461 143.441C3.81931 142.051 5.17772 140.898 6.72576 140.054C8.27381 139.211 9.97854 138.693 11.7345 138.535C13.4904 138.376 15.2602 138.58 16.9343 139.133C11.9146 146.41 9.62924 155.228 10.4822 164.028Z" fill="#F1F1F1"/>
<path d="M30.4664 169.237C33.68 169.849 37.0062 169.216 39.7701 167.465C42.5339 165.715 44.5286 162.979 45.3494 159.812C46.1702 156.645 45.7558 153.284 44.1901 150.411C42.6244 147.539 40.0248 145.369 36.9185 144.343C41.2681 138.044 47.4459 133.231 54.6176 130.555C61.7893 127.88 69.6093 127.47 77.0214 129.38C61.5534 150.047 54.4387 175.784 57.0949 201.462C49.9522 199.353 43.6018 195.16 38.8576 189.418C34.1134 183.677 31.1915 176.65 30.4664 169.237Z" fill="#F1F1F1"/>
<path d="M261.005 179.887C268.214 181.43 274.806 185.069 279.954 190.346C285.102 195.623 288.576 202.304 289.94 209.549C286.839 209.483 283.817 210.538 281.431 212.52C279.045 214.503 277.454 217.28 276.951 220.341C276.447 223.403 277.066 226.543 278.691 229.186C280.317 231.828 282.842 233.795 285.801 234.725C281.563 242.304 274.817 248.17 266.723 251.314C258.629 254.459 249.693 254.686 241.45 251.956C256.781 231.239 263.762 205.513 261.005 179.887Z" fill="#F1F1F1"/>
<path d="M289.928 209.549C291.778 209.582 293.599 210.013 295.268 210.813C296.936 211.613 298.413 212.762 299.598 214.184C300.783 215.605 301.648 217.265 302.135 219.05C302.621 220.836 302.717 222.705 302.417 224.531C302.117 226.357 301.427 228.097 300.395 229.633C299.362 231.168 298.011 232.464 296.434 233.431C294.856 234.398 293.089 235.014 291.252 235.238C289.415 235.461 287.552 235.286 285.789 234.725C290.067 227.075 291.532 218.167 289.928 209.549Z" fill="#F1F1F1"/>
<path d="M313.5 215.124C315.35 215.157 317.171 215.588 318.84 216.388C320.509 217.187 321.986 218.337 323.17 219.758C324.355 221.18 325.22 222.84 325.707 224.625C326.193 226.411 326.29 228.28 325.989 230.106C325.689 231.932 324.999 233.672 323.967 235.208C322.935 236.743 321.584 238.039 320.006 239.006C318.429 239.973 316.661 240.589 314.824 240.812C312.988 241.036 311.124 240.861 309.361 240.3C313.636 232.648 315.1 223.742 313.5 215.124Z" fill="#F1F1F1"/>
<path d="M116.144 97.7835L136.91 123.229C135.913 124.792 135.037 126.428 134.289 128.125L111.428 100.116C112.998 99.2637 114.555 98.4819 116.144 97.7835Z" fill="#F1F1F1"/>
<path d="M57.0949 201.462C61.8499 202.844 66.8321 203.268 71.7522 202.709C76.6724 202.15 81.4325 200.619 85.7563 198.206C90.0801 195.792 93.8815 192.544 96.9398 188.649C99.9981 184.754 102.252 180.29 103.572 175.517C104.891 170.744 105.25 165.756 104.626 160.843C104.003 155.931 102.41 151.191 99.9399 146.898C97.4699 142.606 94.172 138.847 90.2377 135.84C86.3035 132.833 81.8111 130.637 77.0214 129.38C85.3077 118.364 95.7145 109.118 107.629 102.186L102.003 106.78L131.092 142.42C130.934 149.454 132.763 156.389 136.368 162.429C139.974 168.47 145.21 173.371 151.476 176.569C157.741 179.767 164.781 181.133 171.788 180.51C178.795 179.887 185.483 177.3 191.086 173.046C196.689 168.792 200.978 163.044 203.461 156.462C205.944 149.879 206.52 142.73 205.123 135.835C203.727 128.941 200.414 122.579 195.565 117.483C190.716 112.386 184.528 108.761 177.711 107.024L180.05 105.101L166.595 88.6267C190.522 90.3855 213.075 100.482 230.326 117.157C247.577 133.833 258.434 156.031 261.005 179.887C251.643 177.86 241.859 179.504 233.674 184.481C225.488 189.457 219.525 197.386 217.015 206.632C214.504 215.878 215.638 225.734 220.183 234.168C224.728 242.601 232.336 248.969 241.438 251.956C229.135 268.563 212.1 281.063 192.568 287.817C173.036 294.571 151.919 295.264 131.987 289.804C112.055 284.344 94.2377 272.987 80.873 257.222C67.5083 241.457 59.2199 222.021 57.0949 201.462ZM168.1 269.251C173.832 264.574 178.048 258.303 180.216 251.23C182.383 244.156 182.405 236.599 180.277 229.514C178.15 222.429 173.97 216.133 168.265 211.424C162.56 206.715 155.587 203.803 148.228 203.058C140.868 202.312 133.453 203.766 126.92 207.235C120.387 210.704 115.029 216.033 111.524 222.548C108.019 229.062 106.524 236.47 107.229 243.834C107.934 251.198 110.807 258.188 115.484 263.919C121.755 271.603 130.821 276.482 140.688 277.482C150.556 278.482 160.416 275.521 168.1 269.251Z" fill="#F1F1F1"/>
<path d="M145.585 89.2419C147.614 88.9727 149.652 88.7591 151.698 88.6011L165.845 105.941C163.86 106.074 161.888 106.367 159.95 106.819L145.585 89.2419Z" fill="#F1F1F1"/>
<path d="M144.643 114.444L127.427 93.3493C129.196 92.7726 130.973 92.2471 132.758 91.7729L148.821 111.451C147.429 112.311 146.093 113.259 144.823 114.29L144.643 114.444Z" fill="#F1F1F1"/>
</svg>
