<?xml version="1.0" standalone="no"?><svg xmlns="http://www.w3.org/2000/svg" viewBox="0 0 1440 320"><path fill="#4d6bc3" fill-opacity="1" d="M0,64L30,90.7C60,117,120,171,180,170.7C240,171,300,117,360,96C420,75,480,85,540,106.7C600,128,660,160,720,186.7C780,213,840,235,900,240C960,245,1020,235,1080,213.3C1140,192,1200,160,1260,122.7C1320,85,1380,43,1410,21.3L1440,0L1440,320L1410,320C1380,320,1320,320,1260,320C1200,320,1140,320,1080,320C1020,320,960,320,900,320C840,320,780,320,720,320C660,320,600,320,540,320C480,320,420,320,360,320C300,320,240,320,180,320C120,320,60,320,30,320L0,320Z"></path></svg>